<mxfile host="app.diagrams.net" modified="2023-11-16T11:57:24.511Z" agent="Mozilla/5.0 (Windows NT 10.0; Win64; x64) AppleWebKit/537.36 (KHTML, like Gecko) Chrome/116.0.5845.837 YaBrowser/23.9.4.837 Yowser/2.5 Safari/537.36" etag="UtdeQ0Apbm-qPlaDpXzx" version="22.1.2" type="device">
  <diagram name="Страница — 1" id="BaeZ8snuGLS1RiJ7LTnd">
    <mxGraphModel dx="1006" dy="599" grid="1" gridSize="10" guides="1" tooltips="1" connect="1" arrows="1" fold="1" page="1" pageScale="1" pageWidth="827" pageHeight="1169" math="0" shadow="0">
      <root>
        <mxCell id="0" />
        <mxCell id="1" parent="0" />
        <mxCell id="SVdU8493nDtfhlJGKr-o-114" value="Actor" style="shape=umlActor;verticalLabelPosition=bottom;verticalAlign=top;html=1;outlineConnect=0;" vertex="1" parent="1">
          <mxGeometry x="150" y="450" width="70" height="120" as="geometry" />
        </mxCell>
        <mxCell id="SVdU8493nDtfhlJGKr-o-115" value="" style="endArrow=classic;html=1;rounded=0;" edge="1" parent="1">
          <mxGeometry width="50" height="50" relative="1" as="geometry">
            <mxPoint x="230" y="470" as="sourcePoint" />
            <mxPoint x="320" y="460" as="targetPoint" />
          </mxGeometry>
        </mxCell>
        <mxCell id="SVdU8493nDtfhlJGKr-o-116" value="Урок 1-30" style="ellipse;whiteSpace=wrap;html=1;" vertex="1" parent="1">
          <mxGeometry x="320" y="430" width="120" height="60" as="geometry" />
        </mxCell>
        <mxCell id="SVdU8493nDtfhlJGKr-o-119" value="" style="endArrow=classic;html=1;rounded=0;" edge="1" parent="1">
          <mxGeometry width="50" height="50" relative="1" as="geometry">
            <mxPoint x="230" y="520" as="sourcePoint" />
            <mxPoint x="360" y="530" as="targetPoint" />
          </mxGeometry>
        </mxCell>
        <mxCell id="SVdU8493nDtfhlJGKr-o-120" value="Пройти тест" style="ellipse;whiteSpace=wrap;html=1;" vertex="1" parent="1">
          <mxGeometry x="360" y="500" width="120" height="70" as="geometry" />
        </mxCell>
        <mxCell id="SVdU8493nDtfhlJGKr-o-121" value="" style="endArrow=classic;html=1;rounded=0;" edge="1" parent="1">
          <mxGeometry width="50" height="50" relative="1" as="geometry">
            <mxPoint x="240" y="560" as="sourcePoint" />
            <mxPoint x="390" y="610" as="targetPoint" />
          </mxGeometry>
        </mxCell>
        <mxCell id="SVdU8493nDtfhlJGKr-o-122" value="Теория" style="ellipse;whiteSpace=wrap;html=1;" vertex="1" parent="1">
          <mxGeometry x="390" y="580" width="120" height="70" as="geometry" />
        </mxCell>
        <mxCell id="SVdU8493nDtfhlJGKr-o-124" value="" style="endArrow=block;dashed=1;html=1;dashPattern=1 3;strokeWidth=2;rounded=0;endFill=1;" edge="1" parent="1">
          <mxGeometry width="50" height="50" relative="1" as="geometry">
            <mxPoint x="510" y="619.29" as="sourcePoint" />
            <mxPoint x="580" y="619.29" as="targetPoint" />
          </mxGeometry>
        </mxCell>
        <mxCell id="SVdU8493nDtfhlJGKr-o-125" value="" style="endArrow=block;dashed=1;html=1;dashPattern=1 3;strokeWidth=2;rounded=0;endFill=1;" edge="1" parent="1">
          <mxGeometry width="50" height="50" relative="1" as="geometry">
            <mxPoint x="480" y="534.29" as="sourcePoint" />
            <mxPoint x="550" y="534.29" as="targetPoint" />
          </mxGeometry>
        </mxCell>
        <mxCell id="SVdU8493nDtfhlJGKr-o-126" value="Выдача результата" style="ellipse;whiteSpace=wrap;html=1;" vertex="1" parent="1">
          <mxGeometry x="550" y="510" width="120" height="60" as="geometry" />
        </mxCell>
        <mxCell id="SVdU8493nDtfhlJGKr-o-127" value="Include" style="text;html=1;align=center;verticalAlign=middle;resizable=0;points=[];autosize=1;strokeColor=none;fillColor=none;" vertex="1" parent="1">
          <mxGeometry x="480" y="510" width="60" height="30" as="geometry" />
        </mxCell>
        <mxCell id="SVdU8493nDtfhlJGKr-o-128" value="Include" style="text;html=1;align=center;verticalAlign=middle;resizable=0;points=[];autosize=1;strokeColor=none;fillColor=none;" vertex="1" parent="1">
          <mxGeometry x="510" y="590" width="60" height="30" as="geometry" />
        </mxCell>
        <mxCell id="SVdU8493nDtfhlJGKr-o-129" value="Выдача информации" style="ellipse;whiteSpace=wrap;html=1;" vertex="1" parent="1">
          <mxGeometry x="580" y="590" width="130" height="60" as="geometry" />
        </mxCell>
        <mxCell id="SVdU8493nDtfhlJGKr-o-131" value="Выдача информации 1-30" style="ellipse;whiteSpace=wrap;html=1;" vertex="1" parent="1">
          <mxGeometry x="540" y="420" width="130" height="60" as="geometry" />
        </mxCell>
        <mxCell id="SVdU8493nDtfhlJGKr-o-132" value="Include" style="text;html=1;align=center;verticalAlign=middle;resizable=0;points=[];autosize=1;strokeColor=none;fillColor=none;" vertex="1" parent="1">
          <mxGeometry x="460" y="420" width="60" height="30" as="geometry" />
        </mxCell>
        <mxCell id="SVdU8493nDtfhlJGKr-o-133" value="" style="endArrow=block;dashed=1;html=1;dashPattern=1 3;strokeWidth=2;rounded=0;endFill=1;" edge="1" parent="1">
          <mxGeometry width="50" height="50" relative="1" as="geometry">
            <mxPoint x="440" y="450" as="sourcePoint" />
            <mxPoint x="540" y="450" as="targetPoint" />
          </mxGeometry>
        </mxCell>
      </root>
    </mxGraphModel>
  </diagram>
</mxfile>
